<svg xmlns="http://www.w3.org/2000/svg" xmlns:xlink="http://www.w3.org/1999/xlink" width="74" height="75" viewBox="0 0 74 75"><defs><path id="yfeta" d="M1281 54.5c0-20.71 16.57-37.5 37-37.5s37 16.79 37 37.5-16.57 37.5-37 37.5-37-16.79-37-37.5z"/><path id="yfetb" d="M1324.3 51.07a1.05 1.05 0 1 1 2.11 0 1.05 1.05 0 0 1-2.1 0z"/><path id="yfetc" d="M1327.78 42.1h-1.37v-1.05a1.05 1.05 0 1 0-2.1 0v1.06h-4.8v-1.06a1.05 1.05 0 1 0-2.12 0v1.06h-4.74v-1.06a1.05 1.05 0 1 0-2.11 0v1.06h-1.32a4.22 4.22 0 0 0-4.22 4.22v16.45c0 2.33 1.9 4.22 4.22 4.22h8.07a1.05 1.05 0 1 0 0-2.1h-8.07c-1.16 0-2.11-.96-2.11-2.12V46.33c0-1.16.95-2.11 2.1-2.11h1.33v1.05a1.05 1.05 0 1 0 2.1 0v-1.05h4.75v1.05a1.05 1.05 0 1 0 2.11 0v-1.05h4.8v1.05a1.05 1.05 0 1 0 2.11 0v-1.05h1.37c1.16 0 2.11.95 2.11 2.1v6.02a1.05 1.05 0 1 0 2.11 0v-6.01c0-2.33-1.9-4.22-4.22-4.22z"/><path id="yfetd" d="M1325.62 64.9a4.28 4.28 0 1 1 0-8.56 4.28 4.28 0 0 1 0 8.55zm0-10.66a6.39 6.39 0 1 0 .01 12.77 6.39 6.39 0 0 0-.01-12.77z"/><path id="yfete" d="M1327.15 59.56h-.48v-1.1a1.05 1.05 0 1 0-2.1 0v2.16c0 .58.47 1.05 1.05 1.05h1.53a1.05 1.05 0 1 0 0-2.1z"/><path id="yfetf" d="M1319.71 51.07a1.05 1.05 0 1 1 2.11 0 1.05 1.05 0 0 1-2.1 0z"/><path id="yfetg" d="M1315.13 55.66a1.05 1.05 0 1 1 2.1 0 1.05 1.05 0 0 1-2.1 0z"/><path id="yfeth" d="M1310.54 60.25a1.05 1.05 0 1 1 2.1 0 1.05 1.05 0 0 1-2.1 0z"/><path id="yfeti" d="M1315.13 60.25a1.05 1.05 0 1 1 2.1 0 1.05 1.05 0 0 1-2.1 0z"/><path id="yfetj" d="M1315.13 51.07a1.05 1.05 0 1 1 2.1 0 1.05 1.05 0 0 1-2.1 0z"/></defs><g><g opacity=".17" transform="translate(-1281 -17)"><use fill="#598ab6" xlink:href="#yfeta"/></g><g transform="translate(-1281 -17)"><use fill="#4b82bc" xlink:href="#yfetb"/></g><g transform="translate(-1281 -17)"><use fill="#4b82bc" xlink:href="#yfetc"/></g><g transform="translate(-1281 -17)"><use fill="#4b82bc" xlink:href="#yfetd"/></g><g transform="translate(-1281 -17)"><use fill="#4b82bc" xlink:href="#yfete"/></g><g transform="translate(-1281 -17)"><use fill="#4b82bc" xlink:href="#yfetf"/></g><g transform="translate(-1281 -17)"><use fill="#4b82bc" xlink:href="#yfetg"/></g><g transform="translate(-1281 -17)"><use fill="#4b82bc" xlink:href="#yfeth"/></g><g transform="translate(-1281 -17)"><use fill="#4b82bc" xlink:href="#yfeti"/></g><g transform="translate(-1281 -17)"><use fill="#4b82bc" xlink:href="#yfetj"/></g></g></svg>