<svg xmlns="http://www.w3.org/2000/svg" xmlns:xlink="http://www.w3.org/1999/xlink" width="74" height="75" viewBox="0 0 74 75"><defs><path id="stb4a" d="M498 54.5c0-20.71 16.57-37.5 37-37.5s37 16.79 37 37.5S555.43 92 535 92s-37-16.79-37-37.5z"/><path id="stb4b" d="M549.4 62.41c.07.46-.07.86-.41 1.2l-4 3.97c-.19.2-.42.38-.71.52a2.92 2.92 0 0 1-1.43.3 14.05 14.05 0 0 1-4.98-1.16 26.26 26.26 0 0 1-4.2-2.3 31.29 31.29 0 0 1-4.99-4.21 32.96 32.96 0 0 1-3.49-3.97 28.3 28.3 0 0 1-2.22-3.5 18.88 18.88 0 0 1-1.27-2.93c-.28-.87-.47-1.62-.57-2.25a7.45 7.45 0 0 1-.09-2.1 2.92 2.92 0 0 1 .78-1.56l4-4c.28-.28.6-.42.97-.42.26 0 .49.08.69.23.2.15.37.33.5.55l3.23 6.1c.18.33.23.68.15 1.06-.08.38-.25.7-.51.96l-1.48 1.48a.5.5 0 0 0-.1.2.74.74 0 0 0-.05.22c.08.42.26.9.54 1.44.24.48.62 1.07 1.12 1.76.5.7 1.21 1.5 2.13 2.4.9.92 1.7 1.63 2.4 2.15.71.5 1.3.88 1.77 1.12.47.24.83.39 1.08.44l.38.07.2-.04a.5.5 0 0 0 .19-.1l1.71-1.75c.37-.32.79-.48 1.27-.48.34 0 .6.06.8.18h.04l5.8 3.43c.43.26.68.59.76 1z"/></defs><g><g opacity=".17" transform="translate(-498 -17)"><use fill="#598ab6" xlink:href="#stb4a"/></g><g transform="translate(-498 -17)"><use fill="#4b82bc" xlink:href="#stb4b"/></g></g></svg>