<svg xmlns="http://www.w3.org/2000/svg" xmlns:xlink="http://www.w3.org/1999/xlink" width="74" height="75" viewBox="0 0 74 75"><defs><path id="opj9a" d="M857 54.5c0-20.71 16.57-37.5 37-37.5s37 16.79 37 37.5S914.43 92 894 92s-37-16.79-37-37.5z"/><path id="opj9b" d="M894.57 56.06a5.5 5.5 0 1 1 .01-11 5.5 5.5 0 0 1-.01 11zm0-16.06a10.58 10.58 0 0 0-9.65 14.89c2.65 5.78 7.71 11.88 9.2 13.62a.59.59 0 0 0 .9 0c1.49-1.74 6.55-7.84 9.2-13.62A10.58 10.58 0 0 0 894.57 40z"/></defs><g><g opacity=".17" transform="translate(-857 -17)"><use fill="#598ab6" xlink:href="#opj9a"/></g><g transform="translate(-857 -17)"><use fill="#4b82bc" xlink:href="#opj9b"/></g></g></svg>